<?xml version="1.0" encoding="utf-8"?>
<!-- Generator: Adobe Illustrator 16.0.0, SVG Export Plug-In . SVG Version: 6.00 Build 0)  -->
<!DOCTYPE svg PUBLIC "-//W3C//DTD SVG 1.1//EN" "http://www.w3.org/Graphics/SVG/1.1/DTD/svg11.dtd">
<svg version="1.1" id="Layer_1" xmlns="http://www.w3.org/2000/svg" xmlns:xlink="http://www.w3.org/1999/xlink" x="0px" y="0px"
	 width="240px" height="47px" viewBox="0 0 240 47" enable-background="new 0 0 240 47" xml:space="preserve">
<g>
	<path fill="#000000" d="M233.533,41.27c0.764,0.402,5.789-2.703,6.127-3.959v-0.235c-0.023-0.073-0.084-0.125-0.162-0.177
		c-7.418-4.012-16.689-5.801-25.432-5.872c-9.018-0.069-19.119,3.089-30.369,8.674c-2.404,1.145-1.334,3.333,0.684,2.374
		c9.494-4.708,17.947-7.519,26.248-7.45C219.217,34.686,226.191,37.302,233.533,41.27L233.533,41.27z M125.836,1.486V1.332
		c0.004-0.619,0.211-0.982,0.691-0.856c10.459,2.677,20.082,8.639,28.326,14.054c8.537,5.598,15.816,13.017,21.484,22.741
		c1.252,2.05-1.984,2.87-3.035,1.155c-4.791-8.203-9.398-15.034-17.236-20.18c-8.117-5.33-17.504-8.431-27.854-11.086
		C127.33,6.936,125.869,3.309,125.836,1.486L125.836,1.486z M196.891,27.113c0.25-0.271,0.773-0.389,1.152-0.254
		c0.396,0.129,0.5,0.454,0.246,0.726c-7.59,8.225-16.424-0.208-21.113-6.577c-1.586-1.792,1.908-2.926,3.088-1.75
		C183.996,24.326,190.469,34.075,196.891,27.113z"/>
	<path fill="#000000" d="M141.896,42.766c0.215-0.1,0.4-0.246,0.557-0.444c0.289-0.391,0.512-1.091,0.684-2.104l0.645-4.034
		c-0.783,0.073-1.41,0.213-1.885,0.403c-0.234,0.091-0.43,0.209-0.592,0.338c-0.484,0.388-0.803,1.028-0.943,1.945l-0.227,1.348
		c-0.168,1.049-0.168,1.744,0,2.128c0.16,0.372,0.521,0.562,1.053,0.562C141.459,42.908,141.688,42.861,141.896,42.766z
		 M141.896,44.413c-0.615,0.613-1.195,1.116-1.77,1.447c-0.805,0.459-1.645,0.688-2.52,0.688c-1.566,0-2.656-0.476-3.254-1.444
		c-0.604-0.968-0.738-2.446-0.412-4.453l0.396-2.49c0.293-1.798,1.18-3.117,2.68-3.944c1.1-0.621,2.734-1.062,4.879-1.338l0,0
		c0.756-0.096,1.572-0.175,2.455-0.223l0.229-1.432c0.188-1.132,0.191-1.884,0.047-2.272c-0.139-0.39-0.475-0.58-0.969-0.58
		c-0.59,0-1.023,0.183-1.336,0.563c-0.162,0.198-0.309,0.482-0.426,0.847c-0.109,0.303-0.186,0.674-0.254,1.103l-0.062,0.34h-5.404
		l0.061-0.387c0.367-2.26,1.15-3.831,2.334-4.71c0.781-0.57,1.893-0.96,3.326-1.153l0,0c0.756-0.104,1.607-0.156,2.541-0.156
		c2.754,0,4.592,0.432,5.486,1.306c0.613,0.588,0.934,1.495,0.965,2.74v0.355c-0.008,0.484-0.062,1.028-0.16,1.618l-2.451,15.213
		h-5.842l0.143-2.398C142.346,43.929,142.125,44.185,141.896,44.413z M123.965,27.928c0.936-1.096,1.834-1.881,2.686-2.37
		c0.848-0.497,1.756-0.739,2.721-0.739c1.547,0,2.559,0.432,3.039,1.306c0.479,0.864,0.531,2.465,0.156,4.799l-2.436,15.128h-6.006
		l2.34-14.496c0.15-0.943,0.15-1.601-0.004-1.968c-0.168-0.367-0.508-0.558-1.031-0.558c-0.518,0-0.92,0.19-1.209,0.571
		c-0.281,0.371-0.498,1.021-0.65,1.954l-2.33,14.496h-6.03l2.343-14.496c0.147-0.934,0.139-1.583-0.012-1.954
		c-0.164-0.381-0.502-0.571-1.024-0.571c-0.521,0-0.922,0.19-1.212,0.571c-0.275,0.371-0.497,1.021-0.647,1.954l-2.331,14.496
		h-6.027l3.337-20.731h5.942l-0.217,2.399c0.861-0.994,1.704-1.725,2.537-2.199c0.832-0.468,1.678-0.701,2.551-0.701
		c1.111,0,1.977,0.268,2.586,0.804C123.648,26.157,123.957,26.924,123.965,27.928z M96.505,42.766c0.213-0.1,0.398-0.246,0.55-0.444
		c0.294-0.391,0.523-1.091,0.684-2.104l0.648-4.034c-0.774,0.073-1.401,0.213-1.882,0.403c-0.232,0.091-0.427,0.209-0.586,0.338
		c-0.494,0.388-0.806,1.028-0.957,1.945l-0.216,1.348c-0.163,1.049-0.163,1.744,0,2.128c0.16,0.372,0.511,0.562,1.056,0.562
		C96.061,42.908,96.299,42.861,96.505,42.766z M89.1,29.737c-1.626,0.035-2.819,0.355-3.567,0.997
		c-0.742,0.621-1.231,1.741-1.501,3.337l-1.918,11.979h-6.118l3.343-20.731h5.94l-0.227,2.447c0.796-0.917,1.519-1.565,2.18-1.945
		c0.588-0.347,1.211-0.536,1.868-0.579l0,0c0.078,0,0.169,0,0.246,0c0.048,0,0.139,0,0.234,0.017
		c0.113,0.009,0.19,0.018,0.246,0.018l-0.713,4.461C89.1,29.737,89.1,29.737,89.1,29.737z M89.1,45.305
		c-0.043-0.062-0.095-0.131-0.135-0.2c-0.604-0.968-0.738-2.446-0.419-4.453l0.402-2.49c0.044-0.242,0.09-0.484,0.151-0.709l0,0
		c0.394-1.444,1.236-2.518,2.525-3.235c1.102-0.621,2.732-1.062,4.88-1.338l0,0c0.758-0.096,1.576-0.175,2.462-0.223l0.229-1.432
		c0.179-1.132,0.19-1.884,0.048-2.272c-0.152-0.39-0.476-0.58-0.987-0.58c-0.573,0-1.019,0.183-1.322,0.563
		c-0.168,0.198-0.308,0.482-0.429,0.847c-0.098,0.308-0.185,0.674-0.258,1.103l-0.052,0.34h-5.41l0.069-0.387
		c0.363-2.26,1.142-3.831,2.327-4.71c0.777-0.57,1.89-0.96,3.323-1.153l0,0c0.758-0.104,1.605-0.156,2.539-0.156
		c2.754,0,4.597,0.432,5.495,1.306c0.904,0.864,1.168,2.438,0.805,4.714l-2.452,15.213h-5.837l0.139-2.398
		c-0.233,0.276-0.458,0.532-0.688,0.761l0,0c-0.604,0.632-1.191,1.116-1.771,1.447c-0.804,0.459-1.639,0.688-2.511,0.688
		C90.76,46.549,89.723,46.139,89.1,45.305z M66.712,42.493c0.043-0.043,0.083-0.095,0.112-0.139
		c0.299-0.415,0.532-1.175,0.709-2.261l1.422-8.819c0.173-1.096,0.187-1.874,0.027-2.271c-0.152-0.426-0.52-0.632-1.081-0.632
		c-0.497,0-0.892,0.165-1.189,0.502c-0.03,0.034-0.069,0.078-0.104,0.13c-0.3,0.422-0.54,1.185-0.713,2.271l-1.419,8.819
		c-0.182,1.121-0.19,1.886-0.03,2.282c0.161,0.407,0.519,0.606,1.068,0.606C66.021,42.982,66.422,42.821,66.712,42.493z
		 M66.712,46.466c-0.541,0.062-1.12,0.083-1.737,0.083c-2.859,0-4.739-0.666-5.643-1.993s-1.078-3.762-0.506-7.302l0.506-3.139
		c0.566-3.534,1.513-5.972,2.841-7.299c1.05-1.047,2.56-1.683,4.539-1.902l0,0c0.54-0.069,1.115-0.096,1.725-0.096
		c2.875,0,4.761,0.656,5.656,1.989c0.907,1.314,1.076,3.756,0.51,7.308l-0.51,3.139c-0.571,3.54-1.511,5.975-2.827,7.302
		C70.214,45.598,68.705,46.233,66.712,46.466z M56.573,30.923l-2.435,15.128h-6.153l2.34-14.496c0.146-0.96,0.16-1.618,0.013-1.98
		c-0.134-0.372-0.445-0.545-0.916-0.545c-0.489,0-0.869,0.198-1.154,0.579c-0.265,0.382-0.477,1.029-0.627,1.946l-2.339,14.496
		h-6.105l3.342-20.731h5.941l-0.217,2.399c0.87-0.994,1.708-1.725,2.538-2.199c0.835-0.468,1.678-0.701,2.556-0.701
		c1.547,0,2.567,0.432,3.048,1.31C56.893,27.007,56.949,28.606,56.573,30.923z M29.407,36.587c-0.229,0.091-0.428,0.209-0.588,0.338
		c-0.497,0.388-0.804,1.028-0.955,1.945l-0.212,1.348c-0.174,1.049-0.174,1.744,0,2.128c0.154,0.372,0.515,0.562,1.046,0.562
		c0.264,0,0.502-0.047,0.709-0.143c0.212-0.1,0.402-0.246,0.549-0.444c0.294-0.391,0.528-1.091,0.684-2.104l0.652-4.034
		C30.51,36.257,29.888,36.396,29.407,36.587z M29.407,32.879c0.757-0.096,1.574-0.175,2.456-0.223l0.229-1.432
		c0.187-1.132,0.195-1.884,0.052-2.272c-0.15-0.39-0.479-0.58-0.985-0.58c-0.574,0-1.017,0.183-1.323,0.563
		c-0.168,0.198-0.319,0.482-0.428,0.847c-0.095,0.308-0.186,0.674-0.255,1.103l-0.056,0.34h-5.41l0.065-0.387
		c0.363-2.26,1.142-3.831,2.326-4.71c0.783-0.57,1.897-0.96,3.329-1.153l0,0c0.757-0.104,1.604-0.156,2.547-0.156
		c2.75,0,4.583,0.432,5.487,1.306c0.902,0.864,1.167,2.438,0.804,4.714l-2.452,15.213h-5.837l0.134-2.398
		c-0.229,0.276-0.453,0.532-0.683,0.761l0,0c-0.605,0.632-1.193,1.116-1.772,1.447c-0.796,0.459-1.644,0.688-2.517,0.688
		c-1.564,0-2.663-0.476-3.251-1.444c-0.082-0.121-0.144-0.246-0.208-0.39c-0.424-0.951-0.493-2.316-0.203-4.063l0.203-1.327
		l0.195-1.163c0.285-1.798,1.175-3.117,2.681-3.944C25.629,33.596,27.259,33.154,29.407,32.879L29.407,32.879z M21.659,29.393v0.017
		c-0.38,2.357-1.427,4.083-3.173,5.188c-1.531,0.987-3.688,1.539-6.455,1.648c-0.351,0.011-0.718,0.011-1.085,0.011H8.888
		l-1.569,9.794H0.34l4.047-25.115h7.645h0.134c3.974,0,6.705,0.527,8.158,1.564c0.605,0.441,1.052,0.986,1.336,1.67
		c0.402,0.96,0.493,2.166,0.265,3.615L21.659,29.393z M12.031,24.705c-0.195-0.018-0.398-0.025-0.614-0.025h-0.661l-1.272,7.87
		h0.662c0.744,0,1.375-0.074,1.886-0.217l0,0c0.419-0.111,0.765-0.272,1.023-0.475c0.602-0.473,1-1.307,1.198-2.508l0.243-1.497
		c0.189-1.193,0.056-2.023-0.398-2.482C13.721,24.992,13.029,24.766,12.031,24.705"/>
</g>
</svg>
